<svg role="presentation" preserveAspectRatio="xMidYMid meet" height="100%" width="100%" viewBox="0 0 130 130" xmlns="http://www.w3.org/2000/svg" xmlns:xlink="http://www.w3.org/1999/xlink" class="number-svg__SvgStyled-sc-2slhvi-0"><defs><linearGradient x1="100%" y1="100%" y2="0%" id="number-icon-gradient"><stop stop-color="#3F51B5" offset="0%"></stop><stop stop-color="#8034B2" offset="100%"></stop></linearGradient></defs><path transform="translate(-47)" fill="url(#number-icon-gradient)" fill-rule="evenodd" d="M112 130c-35.899 0-65-29.101-65-65S76.101 0 112 0s65 29.101 65 65-29.101 65-65 65zm-14.286-30h13.234l14.623-69.286c-2.78 1.689-5.323 3.008-7.626 3.958-2.302.95-4.41 1.673-6.325 2.17-1.914.498-3.648.807-5.203.927-1.555.121-2.96.181-4.217.181l-1.076 4.252h8.702L97.714 100z"></path></svg>