<svg role="presentation" preserveAspectRatio="xMidYMid meet" height="100%" width="100%" viewBox="0 0 130 130" xmlns="http://www.w3.org/2000/svg" xmlns:xlink="http://www.w3.org/1999/xlink" class="number-svg__SvgStyled-sc-2slhvi-0"><defs><linearGradient x1="100%" y1="100%" y2="0%" id="number-icon-gradient"><stop stop-color="#3F51B5" offset="0%"></stop><stop stop-color="#8034B2" offset="100%"></stop></linearGradient></defs><path transform="translate(-47)" fill="url(#number-icon-gradient)" fill-rule="evenodd" d="M112 130c-35.899 0-65-29.101-65-65S76.101 0 112 0s65 29.101 65 65-29.101 65-65 65zm10.1-68.9c2.145-1.087 4.012-2.312 5.599-3.672 1.587-1.36 2.909-2.788 3.967-4.285 1.058-1.496 1.851-3.037 2.38-4.624.53-1.587.794-3.151.794-4.693a12.48 12.48 0 0 0-1.088-5.123c-.726-1.633-1.814-3.076-3.265-4.33-1.45-1.255-3.257-2.252-5.418-2.993-2.161-.74-4.663-1.11-7.504-1.11-2.69 0-5.206.34-7.55 1.02-2.342.68-4.374 1.64-6.097 2.879-1.723 1.239-3.084 2.72-4.081 4.443-.998 1.723-1.496 3.642-1.496 5.758 0 1.27.174 2.396.521 3.378.348.982.824 1.806 1.428 2.471a6.059 6.059 0 0 0 2.131 1.519 6.527 6.527 0 0 0 2.585.521c1.148 0 2.327-.257 3.536-.77 1.21-.514 2.388-1.3 3.537-2.358a3.526 3.526 0 0 1-1.632-.998 6.232 6.232 0 0 1-1.111-1.655 7.88 7.88 0 0 1-.612-1.972 11.65 11.65 0 0 1-.182-1.995c0-1.088.174-2.078.522-2.97a6.335 6.335 0 0 1 1.473-2.267c.635-.62 1.406-1.103 2.313-1.45.906-.348 1.92-.522 3.037-.522 1.18 0 2.215.189 3.106.567.892.378 1.633.907 2.222 1.587.59.68 1.028 1.488 1.315 2.425.287.937.43 1.95.43 3.038 0 1.632-.34 3.348-1.02 5.146-.68 1.799-1.685 3.537-3.015 5.215-1.33 1.677-2.985 3.196-4.964 4.556-1.98 1.36-4.27 2.418-6.87 3.174 2.147.725 3.998 1.723 5.555 2.993 1.556 1.269 2.833 2.69 3.83 4.262a18.327 18.327 0 0 1 2.223 5.01 19.95 19.95 0 0 1 .725 5.282c0 2.72-.363 5.07-1.088 7.05-.726 1.98-1.67 3.627-2.834 4.942-1.164 1.315-2.456 2.29-3.877 2.925-1.42.635-2.826.952-4.216.952a8.397 8.397 0 0 1-3.015-.544 7.245 7.245 0 0 1-2.517-1.61c-.725-.71-1.307-1.587-1.745-2.63-.439-1.042-.658-2.259-.658-3.65 0-.936.09-1.964.272-3.083a9.068 9.068 0 0 1 1.134-3.15c.574-.983 1.398-1.83 2.47-2.54 1.074-.71 2.502-1.126 4.286-1.247-.182-.906-.507-1.662-.975-2.267a5.9 5.9 0 0 0-1.655-1.473 6.545 6.545 0 0 0-2.154-.794 13.3 13.3 0 0 0-2.47-.226c-1.875 0-3.507.325-4.898.974a9.775 9.775 0 0 0-3.514 2.744c-.952 1.178-1.662 2.584-2.13 4.216-.47 1.632-.703 3.416-.703 5.35 0 2.388.332 4.436.997 6.144.665 1.708 1.534 3.144 2.607 4.307a13.086 13.086 0 0 0 3.627 2.789 20.99 20.99 0 0 0 4.081 1.61c1.375.377 2.69.627 3.945.747 1.254.121 2.335.182 3.242.182 2.63 0 5.108-.325 7.435-.975 2.328-.65 4.459-1.55 6.393-2.698a25.807 25.807 0 0 0 5.192-4.035 26.085 26.085 0 0 0 3.876-4.965 23.716 23.716 0 0 0 2.426-5.509c.56-1.904.839-3.793.839-5.667a17.18 17.18 0 0 0-.68-4.829 14.22 14.22 0 0 0-2.108-4.33c-.953-1.33-2.162-2.524-3.628-3.582-1.466-1.058-3.226-1.92-5.282-2.584z"></path></svg>